<svg xmlns="http://www.w3.org/2000/svg" width="295.283" height="130.454" viewBox="0 0 295.283 130.454"><path d="M288.436,516.4c-10.542,45.877-42,84.836-84.156,104.2a153.4,153.4,0,0,1-86.26,12.021l-13.886-95.907c2.282,1.666,4.947,4.765,6.644,10.519,4.062,13.75,10.245,46.174,10.3,46.5l.922,4.846,3.975-2.651c.57-.279,4.992-2.314,28.212-10.323,25.068-8.648,52.052,4.983,52.325,5.12l3-5.814c-1.2-.62-29.7-15.059-57.459-5.49-11.706,4.039-20.431,7.178-25.318,9.1-.694-3.564-1.807-9.15-3.1-15.306,2.834-1.793,13.522-8.2,23.68-9.519,13.686-1.775,26.834,3.354,26.961,3.409l7.133,2.834-2.889-7.105c-1.839-4.531-7.411-8.552-13.86-13.207-5.8-4.189-12.385-8.935-16.2-14.207a12.946,12.946,0,0,1-1.041-14.179c18.418,21.567,27.171,30.662,61.4,34.313,21,2.241,27.45,15.133,27.719,15.68l5.918-2.788c-.314-.684-8.1-16.748-32.944-19.395-32.775-3.5-39.913-11.87-58.993-34.249l-3.281-3.851-2.506,2.678c-3.924,4.2-9.3,14.969-1.574,25.629,4.441,6.124,11.473,11.2,17.675,15.68,1.323.954,2.66,1.916,3.938,2.87a61.279,61.279,0,0,0-18.3-.6c-9.761,1.269-19.541,6.421-24.292,9.227-1.707-7.813-3.555-15.708-5.134-21.056-4.737-16.054-16.251-17.058-16.739-17.1l-4.057-.288,7.055,48.693c-1.588-2.546-3.195-5-4.7-7.288-2.793-4.258-6.28-9.556-6.476-11.162-.744-5.942-4.938-26.51-9.971-37.613-4.728-10.419-15.352-10.971-20.317-9.793l-3.331.789,18.3,64.62a134.04,134.04,0,0,0-11.391-13.065c-1.05-2.9-5.2-14.17-10.66-26.5-5.882-13.285-17.323-14.407-22.562-13.161l-3.674.885L53.5,587.023c-1.483-.789-3.067-1.615-4.829-2.514-2.893-1.474-6.854-3.5-7.552-4.189l-.274-.365c-7.146-9.547-16.812-21.814-22.234-26.076a14.7,14.7,0,0,0-16.483-1.442l-2.6,1.583,1.4,2.706c13.011,25.255,32.355,45.863,57.505,61.247a160.051,160.051,0,0,0,148.574,8.575C251,606.34,283.817,565.711,294.815,517.867ZM76.2,523.325c4.8,10.578,8.822,30.758,9.446,35.723.37,2.976,2.825,6.827,7.5,13.946,4.814,7.325,10.788,16.433,13.152,24.337l4.942,34.112q-6.5-1.26-12.869-3.085L66.831,516.954a10.393,10.393,0,0,1,9.373,6.371m-27.427,16c6.211,14.01,10.692,26.628,10.738,26.751l.264.735.557.534c.16.15,16.146,15.644,22.672,32.059l.329-.128,7.575,26.756a148.777,148.777,0,0,1-17.775-7.416L37.729,529.805c3.308.493,7.959,2.528,11.048,9.519M8.55,557.122a8.3,8.3,0,0,1,6.019,1.9c2.2,1.725,7.854,7.247,21.042,24.853l.274.365c1.259,1.68,4.23,3.245,9.816,6.092,3.851,1.972,11.035,5.636,11.984,7.192h0l6.471,16.228c-.771-.452-1.547-.895-2.313-1.365-22.968-14.056-40.885-32.638-53.3-55.269" transform="translate(0.468 -510.39)" fill="#563e5b"/></svg>