<svg xmlns="http://www.w3.org/2000/svg" width="219" height="247.002" viewBox="0 0 219 247.002"><g transform="translate(-29.004 0)"><path d="M91.563,303.382a18.68,18.68,0,0,1-2.973-10.121V258.915a27.979,27.979,0,0,1,1.7-9.627l19.022-52.069a3.62,3.62,0,1,0-6.8-2.484L83.493,246.8a35.186,35.186,0,0,0-2.143,12.112V284.49L31.432,301.922a3.621,3.621,0,1,0,2.388,6.836l47.53-16.6v1.1A25.9,25.9,0,0,0,85.473,307.3a3.62,3.62,0,1,0,6.09-3.915Z" transform="translate(0 -99.502)" fill="#563e5b"/><path d="M250.815,286.814l-38.493-24.871A7.226,7.226,0,0,1,209,255.848V154.955h0a2.688,2.688,0,0,1,5.256-.792l12.1,39.242a3.641,3.641,0,0,1,.162,1.075v8.562a3.62,3.62,0,1,0,7.241,0V194.48a10.872,10.872,0,0,0-.484-3.209l-12.1-39.242A9.891,9.891,0,0,0,209,145.407V102a4.919,4.919,0,0,1,9.54-1.688l35.05,95.945a27.959,27.959,0,0,1,1.7,9.627v.77a3.62,3.62,0,0,0,7.241,0v-.77a35.194,35.194,0,0,0-2.142-12.112L225.344,97.83a12.151,12.151,0,0,0-19.962-4.474,12.151,12.151,0,0,0-19.962,4.474l-10.7,29.295a3.62,3.62,0,1,0,6.8,2.484l10.7-29.295a4.919,4.919,0,0,1,9.54,1.688v43.4a9.892,9.892,0,0,0-12.176,6.623l-12.1,39.243A10.887,10.887,0,0,0,177,194.48v8.562a3.62,3.62,0,1,0,7.241,0V194.48a3.658,3.658,0,0,1,.162-1.076l12.1-39.242a2.688,2.688,0,0,1,5.256.792h0V255.848a7.228,7.228,0,0,1-3.318,6.094l-38.493,24.871a3.621,3.621,0,1,0,3.929,6.082l38.493-24.871a14.577,14.577,0,0,0,3.009-2.594,14.562,14.562,0,0,0,3.009,2.594L246.885,292.9a3.621,3.621,0,0,0,3.93-6.082Z" transform="translate(-66.879 -46.474)" fill="#563e5b"/><path d="M412.6,386.724,362.682,369.29v-9.374a3.62,3.62,0,0,0-7.241,0v18.147a18.68,18.68,0,0,1-2.972,10.121,3.62,3.62,0,1,0,6.091,3.915,25.9,25.9,0,0,0,4.122-14.036v-1.1l47.53,16.6a3.621,3.621,0,1,0,2.387-6.836Z" transform="translate(-167.023 -184.304)" fill="#563e5b"/><path d="M390.022,127.986a41.6,41.6,0,0,1-8.988,14.867l-24.561,26.273a3.62,3.62,0,1,0,5.289,4.945L386.323,147.8a48.8,48.8,0,0,0,10.541-17.441,3.62,3.62,0,1,0-6.842-2.371Z" transform="translate(-168.887 -64.945)" fill="#563e5b"/><path d="M102.62,108.876a3.62,3.62,0,0,0,5.254-4.982L83.237,77.909a41.219,41.219,0,0,1,1.178-58.333,44.223,44.223,0,0,1,61.258-.062l5.644,5.481a7.747,7.747,0,0,0,10.86-.011l5.479-5.342a44.2,44.2,0,0,1,61.32,0l.158.154a41.379,41.379,0,0,1,12.642,29.065,3.62,3.62,0,0,0,3.619,3.559h.063a3.621,3.621,0,0,0,3.558-3.682,48.573,48.573,0,0,0-14.826-34.125l-.158-.154a51.491,51.491,0,0,0-71.43,0L157.122,19.8a.544.544,0,0,1-.762,0l-5.644-5.481a51.513,51.513,0,0,0-71.355.073,48.557,48.557,0,0,0-1.378,68.5Z" transform="translate(-18.372 0)" fill="#563e5b"/></g></svg>