<svg xmlns="http://www.w3.org/2000/svg" width="181.606" height="152.723" viewBox="0 0 181.606 152.723"><g transform="translate(0 -3.656)"><g transform="translate(0 3.656)"><path d="M179.785,56.536,99.514,5.348A12.157,12.157,0,0,0,87,5.431L1.781,61.459a3.951,3.951,0,0,0,4.338,6.606L91.336,12.033a4.406,4.406,0,0,1,3.923-.028l80.27,51.188a3.95,3.95,0,0,0,4.255-6.657Z" transform="translate(0 -3.656)" fill="#563e5b"/><path d="M133.565,42.873,81.531,10.535a12.831,12.831,0,0,0-12.485.012L12.094,46.137A13.8,13.8,0,0,0,6.089,56.97V132a8.853,8.853,0,0,0,8.846,8.842H52.271V132l-.016-71.2a.928.928,0,0,1,.94-.94h40.37c.525,0,.707.411.707.94v80.037h36.463A8.856,8.856,0,0,0,139.582,132V53.707A13.782,13.782,0,0,0,133.565,42.873ZM131.684,132a.938.938,0,0,1-.944.94H102.356a8.231,8.231,0,0,0,.051-.94v-71.2a8.851,8.851,0,0,0-8.838-8.842H53.2a8.852,8.852,0,0,0-8.842,8.842V132a8.232,8.232,0,0,0,.051.94H14.939a.941.941,0,0,1-.944-.94V56.97a5.993,5.993,0,0,1,2.292-4.137l56.952-35.59a6.321,6.321,0,0,1,4.121,0l52.025,32.334a5.971,5.971,0,0,1,2.3,4.125Z" transform="translate(17.967 11.88)" fill="#563e5b"/></g></g></svg>