<svg xmlns="http://www.w3.org/2000/svg" width="211" height="211" viewBox="0 0 211 211"><g transform="translate(-164.272 -158.387)"><path d="M-691.228-8484.114a104.357,104.357,0,0,1-40.87-8.251,105.059,105.059,0,0,1-17.836-9.681,105.876,105.876,0,0,1-15.54-12.821,105.77,105.77,0,0,1-12.821-15.54,105,105,0,0,1-9.681-17.836,104.345,104.345,0,0,1-8.251-40.87,104.346,104.346,0,0,1,8.251-40.871,105,105,0,0,1,9.681-17.837,105.753,105.753,0,0,1,12.821-15.539,105.752,105.752,0,0,1,15.54-12.821,105.021,105.021,0,0,1,17.836-9.682,104.357,104.357,0,0,1,40.87-8.251,104.363,104.363,0,0,1,40.872,8.251,105.021,105.021,0,0,1,17.836,9.682,105.746,105.746,0,0,1,15.54,12.821,105.746,105.746,0,0,1,12.821,15.539,105.009,105.009,0,0,1,9.681,17.837,104.346,104.346,0,0,1,8.251,40.871,104.345,104.345,0,0,1-8.251,40.87,105.009,105.009,0,0,1-9.681,17.836,105.763,105.763,0,0,1-12.821,15.54,105.869,105.869,0,0,1-15.54,12.821,105.05,105.05,0,0,1-17.836,9.681A104.363,104.363,0,0,1-691.228-8484.114Zm-.524-174.322a70.613,70.613,0,0,0-15.692,1.781,66.786,66.786,0,0,0-46.777,38.918,66.607,66.607,0,0,0,3.462,60.59,2.6,2.6,0,0,1,.264,2.413c-1.95,5.629-3.871,11.3-5.729,16.779l-.845,2.493c-1.03,3.037-2.037,6.024-3.1,9.188l-.107.317-.327.971-1.052,3.122a1.11,1.11,0,0,0,.151,1.013,1.118,1.118,0,0,0,.905.472,1.137,1.137,0,0,0,.345-.055l8.21-2.617.334-.106c8.39-2.676,17.065-5.441,25.607-8.125a3.842,3.842,0,0,1,1.113-.16,2.892,2.892,0,0,1,1.291.267,68.65,68.65,0,0,0,31.628,7.883,72.559,72.559,0,0,0,16.743-2.02,66.585,66.585,0,0,0,42.1-31.186,66.54,66.54,0,0,0,7.212-51.859A68.216,68.216,0,0,0-691.752-8658.437Zm-.368,124.372a55.623,55.623,0,0,1-15.477-2.184,60.373,60.373,0,0,1-14.665-6.541,2.938,2.938,0,0,0-1.471-.364,2.634,2.634,0,0,0-.751.1c-4.735,1.454-9.535,2.986-14.177,4.469l-.3.095q-2.18.7-4.361,1.392l-.017.006a1.056,1.056,0,0,1-.32.05,1.049,1.049,0,0,1-.847-.44,1.036,1.036,0,0,1-.141-.944c1.081-3.227,2.142-6.389,3.229-9.611.3-.879.614-1.793.893-2.6.657-1.9,1.336-3.859,1.933-5.818a2.728,2.728,0,0,0-.288-2.056,59.952,59.952,0,0,1-6.648-12.919,56.978,56.978,0,0,1-3.159-13.414,56.412,56.412,0,0,1,.128-13.381,56.6,56.6,0,0,1,3.215-12.816,56.589,56.589,0,0,1,6.1-11.715,56.378,56.378,0,0,1,8.778-10.089,57,57,0,0,1,11.259-7.935,59.96,59.96,0,0,1,13.539-5.249,56.4,56.4,0,0,1,13.935-1.755,57.6,57.6,0,0,1,36.405,13.127A57.127,57.127,0,0,1-642.5-8619.8a56.056,56.056,0,0,1,7.1,19,55.845,55.845,0,0,1-.538,22.408,56.826,56.826,0,0,1-8.812,19.868,56.89,56.89,0,0,1-15.588,15.162,56.036,56.036,0,0,1-20.865,8.3A61.8,61.8,0,0,1-692.12-8534.064Zm.977-100.917a48.462,48.462,0,0,0-48.406,48.408,48.461,48.461,0,0,0,48.406,48.406,48.462,48.462,0,0,0,48.408-48.406A48.463,48.463,0,0,0-691.143-8634.981Z" transform="translate(961 8853.001)" fill="#563e5b" stroke="rgba(0,0,0,0)" stroke-miterlimit="10" stroke-width="1"/><path d="M322.315,421.128c1.353-4.028,2.608-7.781,3.875-11.53.948-2.8,1.963-5.588,2.825-8.419a2.726,2.726,0,0,0-.287-2.054c-22.551-33.3-5.769-77.569,33.209-87.517,31.873-8.134,64.492,12.859,70.273,45.227a57.267,57.267,0,0,1-86.867,58.01,3.048,3.048,0,0,0-2.222-.262c-6.295,1.933-12.561,3.959-18.836,5.955C323.719,420.718,323.149,420.879,322.315,421.128Zm19.956-69.514c.589,2.52,1.015,5.092,1.8,7.547,1.281,3.981,3.725,7.348,6.066,10.773,9.179,13.426,21.091,23.065,37.054,27.293,3.7.979,7.255,1.612,11.143.834A14.712,14.712,0,0,0,410.475,384.4a2.918,2.918,0,0,0-1.906-3.262c-1.225-.5-2.381-1.172-3.584-1.733-3.239-1.508-6.479-3.013-9.734-4.485a2.562,2.562,0,0,0-3.455.988c-1.564,2.083-3.3,4.032-4.924,6.075a2.8,2.8,0,0,1-3.65.9A45.933,45.933,0,0,1,360.588,363.7c-1.166-1.9-1.031-2.439.439-4.193a41.169,41.169,0,0,0,3.893-5.274,3.737,3.737,0,0,0,.129-2.879c-1.666-4.281-3.511-8.491-5.283-12.73-.738-1.767-1.837-2.9-3.962-2.629a15.437,15.437,0,0,1-2.6-.072,5.852,5.852,0,0,0-4.445,1.724A20.23,20.23,0,0,0,342.271,351.615Z" transform="translate(-106.605 -104.633)" fill="#563e5b"/></g></svg>